<?xml version="1.0" encoding="UTF-8" standalone="no"?>
<svg
   viewBox="0 0 50 50"
   width="150px"
   height="150px"
   version="1.1"
   id="svg1"
   sodipodi:docname="Folder.svg"
   inkscape:version="1.3 (0e150ed6c4, 2023-07-21)"
   xmlns:inkscape="http://www.inkscape.org/namespaces/inkscape"
   xmlns:sodipodi="http://sodipodi.sourceforge.net/DTD/sodipodi-0.dtd"
   xmlns="http://www.w3.org/2000/svg"
   xmlns:svg="http://www.w3.org/2000/svg">
  <defs
     id="defs1" />
  <sodipodi:namedview
     id="namedview1"
     pagecolor="#ffffff"
     bordercolor="#000000"
     borderopacity="0.25"
     inkscape:showpageshadow="2"
     inkscape:pageopacity="0.0"
     inkscape:pagecheckerboard="0"
     inkscape:deskcolor="#d1d1d1"
     inkscape:zoom="3.0316667"
     inkscape:cx="11.050027"
     inkscape:cy="89.5547"
     inkscape:window-width="1931"
     inkscape:window-height="1266"
     inkscape:window-x="613"
     inkscape:window-y="632"
     inkscape:window-maximized="0"
     inkscape:current-layer="svg1" />
  <path
     d="M 5 4 C 3.346 4 2 5.346 2 7 L 2 13 L 3 13 L 47 13 L 48 13 L 48 11 C 48 9.346 46.654 8 45 8 L 18.044922 8.0058594 C 17.765922 7.9048594 17.188906 6.9861875 16.878906 6.4921875 C 16.111906 5.2681875 15.317 4 14 4 L 5 4 z M 3 15 C 2.448 15 2 15.448 2 16 L 2 43 C 2 44.657 3.343 46 5 46 L 45 46 C 46.657 46 48 44.657 48 43 L 48 16 C 48 15.448 47.552 15 47 15 L 3 15 z"
     fill="#000000"
     id="path1"
     style="fill:#ecc748;fill-opacity:1" />
</svg>
