<?xml version="1.0" encoding="UTF-8" standalone="no"?>
<svg
   viewBox="0 0 50 50"
   width="150px"
   height="150px"
   version="1.1"
   id="svg1"
   sodipodi:docname="Idea.svg"
   inkscape:version="1.3 (0e150ed6c4, 2023-07-21)"
   xmlns:inkscape="http://www.inkscape.org/namespaces/inkscape"
   xmlns:sodipodi="http://sodipodi.sourceforge.net/DTD/sodipodi-0.dtd"
   xmlns="http://www.w3.org/2000/svg"
   xmlns:svg="http://www.w3.org/2000/svg">
  <defs
     id="defs1" />
  <sodipodi:namedview
     id="namedview1"
     pagecolor="#ffffff"
     bordercolor="#000000"
     borderopacity="0.25"
     inkscape:showpageshadow="2"
     inkscape:pageopacity="0.0"
     inkscape:pagecheckerboard="0"
     inkscape:deskcolor="#d1d1d1"
     inkscape:zoom="12.126667"
     inkscape:cx="75"
     inkscape:cy="101.47059"
     inkscape:window-width="1931"
     inkscape:window-height="1266"
     inkscape:window-x="846"
     inkscape:window-y="591"
     inkscape:window-maximized="0"
     inkscape:current-layer="svg1" />
  <path
     d="M 25 3 C 16.730469 3 10 9.730469 10 18 C 10 24.167969 12.785156 27.140625 14.8125 29.3125 C 16.089844 30.683594 17 31.667969 17 33 L 17 38 L 24 38 L 24 23.40625 L 20.28125 19.71875 C 19.890625 19.328125 19.890625 18.671875 20.28125 18.28125 C 20.671875 17.890625 21.328125 17.890625 21.71875 18.28125 L 25 21.59375 L 28.28125 18.28125 C 28.671875 17.890625 29.328125 17.890625 29.71875 18.28125 C 30.109375 18.671875 30.109375 19.328125 29.71875 19.71875 L 26 23.40625 L 26 38 L 33 38 L 33 33 C 33 31.085938 34.105469 29.925781 35.5 28.46875 C 37.507813 26.371094 40 23.773438 40 18 C 40 9.730469 33.269531 3 25 3 Z M 17 40 L 17 43 C 17 44.652344 18.347656 46 20 46 L 21.15625 46 C 21.601563 47.722656 23.140625 49 25 49 C 26.859375 49 28.398438 47.722656 28.84375 46 L 30 46 C 31.652344 46 33 44.652344 33 43 L 33 40 Z"
     fill="#000000"
     id="path1"
     style="fill:#999999" />
  <path
     style="fill:#ffcc00;stroke-width:0.077606"
     d="m 73.227048,146.81831 c -3.79868,-0.58649 -7.052905,-2.96776 -8.792848,-6.43416 -0.255254,-0.50852 -0.569845,-1.25832 -0.699093,-1.66621 l -0.234995,-0.74162 -2.434498,-0.0361 c -2.304633,-0.0342 -2.477771,-0.0476 -3.245703,-0.25241 -3.157988,-0.84211 -5.670538,-3.33969 -6.480464,-6.44185 -0.281082,-1.07659 -0.336007,-2.18609 -0.33608,-6.78884 l -6.8e-5,-4.39115 H 75 98.996701 l -7.05e-4,4.34992 c -7.48e-4,4.61305 -0.05706,5.76447 -0.333742,6.8238 -0.810717,3.10403 -3.322981,5.60641 -6.470677,6.4452 -0.781731,0.20832 -0.943907,0.22103 -3.257191,0.25533 l -2.434498,0.0361 -0.234995,0.74162 c -0.30749,0.9704 -1.038789,2.41739 -1.657966,3.28054 -0.576266,0.80333 -1.674704,1.94415 -2.414768,2.50794 -1.172511,0.89324 -2.851972,1.71941 -4.200663,2.0664 -1.447137,0.37232 -3.318465,0.46874 -4.764448,0.24549 z"
     id="path2"
     transform="scale(0.33333333)" />
  <path
     style="fill:#ffd42a;stroke-width:0.077606"
     d="m 50.984951,105.69681 -0.02291,-8.266903 -0.231858,-0.742166 c -0.271472,-0.868963 -0.82531,-2.070866 -1.307779,-2.83805 -0.937557,-1.49083 -1.930368,-2.679074 -5.138833,-6.150406 -3.624604,-3.921564 -5.336137,-5.99299 -7.030708,-8.509085 -4.871719,-7.233525 -7.196549,-15.361187 -7.194802,-25.153203 8.24e-4,-4.615108 0.623566,-8.797949 1.967877,-13.217866 0.22761,-0.74835 0.472106,-1.499793 0.543325,-1.669873 l 0.129489,-0.309236 h 42.30125 42.301248 l 0.12949,0.309236 c 0.0712,0.17008 0.31571,0.921523 0.54332,1.669873 1.04213,3.426377 1.63907,6.689726 1.89308,10.349093 0.10871,1.566329 0.0596,5.724215 -0.0868,7.339198 -0.6065,6.693472 -2.31045,12.134227 -5.35886,17.11105 -1.8322,2.991245 -3.72639,5.309074 -8.08691,9.895547 -2.89212,3.041996 -4.09329,4.458599 -5.10432,6.019791 -1.06208,1.640018 -1.768785,3.39996 -2.06795,5.149887 -0.158201,0.925376 -0.165617,1.333957 -0.165617,9.124383 v 8.15564 H 88.523914 78.051127 V 92.10184 70.239962 l 5.727486,-5.685592 c 6.138996,-6.094093 6.031694,-5.973422 6.240523,-7.018087 0.262842,-1.314863 -0.483449,-2.762349 -1.723167,-3.342204 -0.415196,-0.194201 -0.573749,-0.221053 -1.297618,-0.219767 -1.42184,0.0025 -1.041422,-0.305659 -6.906134,5.594822 l -5.09195,5.123005 -5.092217,-5.123698 c -5.870447,-5.906739 -5.490703,-5.59923 -6.906401,-5.592639 -0.71226,0.0033 -0.889092,0.03353 -1.297694,0.221751 -1.230528,0.566824 -1.973034,1.981704 -1.728896,3.294489 0.201197,1.081884 0.06744,0.930721 6.247145,7.060188 l 5.726669,5.680116 V 92.098031 113.96372 H 61.478368 51.007863 Z"
     id="path3"
     transform="scale(0.33333333)" />
  <path
     style="fill:#ffd42a;stroke-width:0.077606"
     d="m 51.057247,113.2834 c -0.02913,-0.37418 -0.05318,-4.10022 -0.05345,-8.28009 l -4.93e-4,-7.599763 -0.243646,-0.745583 C 49.982706,94.280414 48.893601,92.689636 45.468487,88.929541 42.328474,85.482429 41.76843,84.86077 41.013138,83.984028 34.249818,76.133173 30.946632,68.132372 30.222585,57.847719 c -0.113923,-1.618196 -0.114322,-5.792181 -6.95e-4,-7.256735 0.28089,-3.620415 0.929497,-6.89261 2.071807,-10.452171 l 0.416799,-1.298791 h 42.2837 42.283704 l 0.29671,0.886476 c 1.11646,3.335637 1.81178,6.677754 2.16596,10.41094 0.17694,1.864977 0.12795,7.484284 -0.0805,9.23278 -0.64425,5.404207 -1.79932,9.531946 -3.76689,13.46129 -2.06627,4.126477 -4.21981,6.980929 -9.35056,12.393891 -2.93631,3.097814 -4.23302,4.611831 -5.2003,6.071776 -0.98542,1.487318 -1.750763,3.244335 -2.150528,4.93702 -0.133876,0.566859 -0.148325,1.332435 -0.173144,9.173995 l -0.02708,8.55553 H 88.521354 78.051127 V 92.120468 70.277221 l 4.712919,-4.647957 c 5.155987,-5.084915 6.729566,-6.725586 7.061932,-7.363027 0.192754,-0.369681 0.218526,-0.514744 0.220859,-1.243147 0.0023,-0.725323 -0.02397,-0.881413 -0.218365,-1.296158 -0.278436,-0.59406 -0.843258,-1.202423 -1.405651,-1.51401 -0.413017,-0.228827 -0.484836,-0.240959 -1.426355,-0.240959 -0.986649,0 -0.993623,0.0014 -1.443101,0.283039 -0.283798,0.177845 -2.328845,2.153601 -5.502513,5.316072 L 75,64.604108 69.949148,59.571074 c -3.179462,-3.168245 -5.2183,-5.137902 -5.50279,-5.316072 -0.446886,-0.279875 -0.462558,-0.283039 -1.401869,-0.283039 -0.870383,0 -0.988772,0.01907 -1.413747,0.227776 -0.572289,0.281046 -1.166749,0.903201 -1.459214,1.527193 -0.193782,0.413445 -0.220911,0.573107 -0.220236,1.296158 6.63e-4,0.710495 0.02864,0.8794 0.202172,1.22036 0.313643,0.616267 1.903836,2.274206 7.042861,7.342903 l 4.752548,4.687507 V 92.118788 113.96372 H 61.52954 51.110206 Z"
     id="path4"
     transform="scale(0.33333333)" />
  <path
     style="fill:#808080;stroke-width:0.077606"
     d="m 73.433205,146.81231 c -2.574658,-0.39515 -4.907736,-1.56649 -6.715881,-3.37177 -0.410856,-0.41021 -0.982652,-1.07816 -1.270659,-1.48433 -0.60115,-0.84781 -1.418962,-2.4573 -1.70028,-3.34623 l -0.192516,-0.60833 -0.729655,-0.0531 c -0.401312,-0.0292 -1.41616,-0.0573 -2.25522,-0.0625 -1.696051,-0.0104 -2.236758,-0.0756 -3.179306,-0.38326 -1.388508,-0.45325 -2.63267,-1.22106 -3.665114,-2.26184 -1.489053,-1.50108 -2.35026,-3.28486 -2.548907,-5.27944 -0.04291,-0.43087 -0.104226,-2.83363 -0.136255,-5.33947 l -0.05823,-4.55608 H 74.999154 99.01713 l -0.05618,4.51484 c -0.0309,2.48317 -0.09178,4.88893 -0.135296,5.34614 -0.190333,1.99984 -1.03542,3.7763 -2.508998,5.27416 -1.045775,1.06301 -2.257982,1.82084 -3.670663,2.29478 -0.911306,0.30573 -1.521571,0.37979 -3.214989,0.39017 -0.83906,0.005 -1.852043,0.0333 -2.251074,0.0625 l -0.725509,0.0531 -0.241263,0.71907 c -1.035714,3.08689 -3.306067,5.66061 -6.204606,7.03366 -1.742925,0.82563 -3.106898,1.11889 -5.119827,1.1008 -0.687151,-0.006 -1.342135,-0.0255 -1.455522,-0.0429 z"
     id="path5"
     transform="scale(0.33333333)" />
  <path
     style="fill:#ffd42a;stroke-width:0;stroke:#000000;stroke-dasharray:none;stroke-opacity:1;fill-opacity:1"
     d="m 32.696537,38.802454 c 0,-0.02066 0.162272,-0.456684 0.360605,-0.968939 1.78099,-4.599941 4.293549,-8.831066 7.604574,-12.806027 1.14821,-1.378453 3.975644,-4.205722 5.352578,-5.352266 7.559975,-6.295035 16.245874,-9.8231421 25.917719,-10.5274651 1.735786,-0.1264034 6.06234,-0.056328 7.685909,0.1244858 9.182763,1.0226663 17.213518,4.4508243 24.367788,10.4020893 1.37695,1.145419 4.20639,3.974687 5.35347,5.353156 3.31623,3.985187 5.82319,8.207386 7.60368,12.806027 0.19833,0.512255 0.3606,0.948277 0.3606,0.968939 0,0.02066 -19.036555,0.03757 -42.30346,0.03757 -23.266905,0 -42.303463,-0.01691 -42.303463,-0.03757 z"
     id="path6"
     transform="scale(0.33333333)" />
</svg>
