<?xml version="1.0" encoding="UTF-8" standalone="no"?>
<svg
   viewBox="0 0 50 50"
   width="150px"
   height="150px"
   version="1.1"
   id="svg1"
   sodipodi:docname="Image File.svg"
   inkscape:version="1.3 (0e150ed6c4, 2023-07-21)"
   xmlns:inkscape="http://www.inkscape.org/namespaces/inkscape"
   xmlns:sodipodi="http://sodipodi.sourceforge.net/DTD/sodipodi-0.dtd"
   xmlns="http://www.w3.org/2000/svg"
   xmlns:svg="http://www.w3.org/2000/svg">
  <defs
     id="defs1" />
  <sodipodi:namedview
     id="namedview1"
     pagecolor="#ffffff"
     bordercolor="#000000"
     borderopacity="0.25"
     inkscape:showpageshadow="2"
     inkscape:pageopacity="0.0"
     inkscape:pagecheckerboard="0"
     inkscape:deskcolor="#d1d1d1"
     inkscape:zoom="4.2874241"
     inkscape:cx="63.791216"
     inkscape:cy="98.427398"
     inkscape:window-width="1931"
     inkscape:window-height="1266"
     inkscape:window-x="724"
     inkscape:window-y="700"
     inkscape:window-maximized="0"
     inkscape:current-layer="svg1" />
  <path
     d="M 29.167969 2 L 7 2 L 7 48 L 43 48 L 43 15.433594 Z M 28.503906 35.121094 L 13.632813 35.121094 L 21.117188 25 L 28.503906 35.121094 L 25.566406 31.070313 L 28.503906 27.023438 L 34.472656 35.121094 Z M 33.527344 25 C 32.480469 25 31.632813 24.175781 31.632813 23.160156 C 31.632813 22.144531 32.480469 21.320313 33.527344 21.320313 C 34.570313 21.320313 35.421875 22.144531 35.421875 23.160156 C 35.421875 24.175781 34.570313 25 33.527344 25 Z M 29 16 L 29 4 L 41 16 Z"
     fill="#000000"
     id="path1"
     style="fill:#cccccc;fill-opacity:1" />
  <path
     style="fill:#36a4ff;fill-opacity:1;stroke:#000000;stroke-width:0"
     d="m 46.313709,98.252468 c 2.824912,-3.816394 7.7818,-10.530006 11.015306,-14.919137 3.233505,-4.389131 5.951635,-7.957708 6.040287,-7.93017 0.08865,0.02754 4.639862,6.19012 10.113801,13.694626 5.473938,7.504506 10.114621,13.801993 10.312631,13.994413 0.486579,0.47286 -0.212741,-0.54588 -3.730095,-5.433833 -1.642884,-2.283058 -3.01165,-4.243716 -3.041703,-4.357018 -0.0709,-0.267292 8.289809,-11.896708 8.506765,-11.832575 0.174946,0.05172 17.444879,23.428696 17.444879,23.613786 0,0.0598 -13.904565,0.10881 -30.899037,0.10881 H 41.177504 Z"
     id="path2"
     transform="scale(0.33333333)" />
  <path
     style="fill:#36a4ff;fill-opacity:1;stroke:#000000;stroke-width:0"
     d="m 98.718475,74.537353 c -1.39552,-0.498011 -2.511869,-1.498124 -3.112781,-2.788671 -1.006213,-2.160992 -0.627098,-4.288335 1.065947,-5.981379 3.456649,-3.456651 9.418619,-1.088591 9.411759,3.7383 -0.005,3.670777 -3.839,6.29003 -7.364925,5.03175 z"
     id="path3"
     transform="scale(0.33333333)" />
</svg>
